<mxfile host="Electron" modified="2024-04-11T16:17:03.099Z" agent="Mozilla/5.0 (Macintosh; Intel Mac OS X 10_15_7) AppleWebKit/537.36 (KHTML, like Gecko) draw.io/24.1.0 Chrome/120.0.6099.109 Electron/28.1.0 Safari/537.36" etag="9DCrwA-k5yb-KLQyYxPh" version="24.1.0" type="device">
  <diagram name="PÃ¡gina-1" id="XihwSeTNaDiTf0Fzvj_v">
    <mxGraphModel dx="1114" dy="660" grid="1" gridSize="10" guides="1" tooltips="1" connect="1" arrows="1" fold="1" page="1" pageScale="1" pageWidth="1169" pageHeight="827" math="0" shadow="0">
      <root>
        <mxCell id="0" />
        <mxCell id="1" parent="0" />
        <mxCell id="DLGg528-OhrPO5TVI_aB-5" style="edgeStyle=orthogonalEdgeStyle;rounded=0;orthogonalLoop=1;jettySize=auto;html=1;" parent="1" source="DLGg528-OhrPO5TVI_aB-1" target="DLGg528-OhrPO5TVI_aB-4" edge="1">
          <mxGeometry relative="1" as="geometry">
            <mxPoint x="430" y="240" as="targetPoint" />
          </mxGeometry>
        </mxCell>
        <mxCell id="DLGg528-OhrPO5TVI_aB-1" value="" style="shape=providedRequiredInterface;html=1;verticalLabelPosition=bottom;sketch=0;" parent="1" vertex="1">
          <mxGeometry x="340" y="230" width="20" height="20" as="geometry" />
        </mxCell>
        <mxCell id="DLGg528-OhrPO5TVI_aB-2" value="Api Tour" style="shape=cube;whiteSpace=wrap;html=1;boundedLbl=1;backgroundOutline=1;darkOpacity=0.05;darkOpacity2=0.1;" parent="1" vertex="1">
          <mxGeometry x="140" y="200" width="120" height="80" as="geometry" />
        </mxCell>
        <mxCell id="DLGg528-OhrPO5TVI_aB-3" style="edgeStyle=orthogonalEdgeStyle;rounded=0;orthogonalLoop=1;jettySize=auto;html=1;entryX=0;entryY=0.5;entryDx=0;entryDy=0;entryPerimeter=0;" parent="1" source="DLGg528-OhrPO5TVI_aB-2" target="DLGg528-OhrPO5TVI_aB-1" edge="1">
          <mxGeometry relative="1" as="geometry" />
        </mxCell>
        <mxCell id="DLGg528-OhrPO5TVI_aB-4" value="Perserverance API" style="shape=cube;whiteSpace=wrap;html=1;boundedLbl=1;backgroundOutline=1;darkOpacity=0.05;darkOpacity2=0.1;" parent="1" vertex="1">
          <mxGeometry x="440" y="200" width="120" height="80" as="geometry" />
        </mxCell>
        <mxCell id="DLGg528-OhrPO5TVI_aB-6" value="Token" style="text;strokeColor=none;fillColor=none;align=left;verticalAlign=middle;spacingLeft=4;spacingRight=4;overflow=hidden;points=[[0,0.5],[1,0.5]];portConstraint=eastwest;rotatable=0;whiteSpace=wrap;html=1;" parent="1" vertex="1">
          <mxGeometry x="330" y="190" width="80" height="30" as="geometry" />
        </mxCell>
        <mxCell id="DLGg528-OhrPO5TVI_aB-7" value="clientId: xts-uat" style="text;strokeColor=none;fillColor=none;align=left;verticalAlign=middle;spacingLeft=4;spacingRight=4;overflow=hidden;points=[[0,0.5],[1,0.5]];portConstraint=eastwest;rotatable=0;whiteSpace=wrap;html=1;" parent="1" vertex="1">
          <mxGeometry x="450" y="160" width="110" height="30" as="geometry" />
        </mxCell>
        <mxCell id="DLGg528-OhrPO5TVI_aB-8" value="clientId: CreationTour&lt;br&gt;clientSecret: CreationTour&lt;br&gt;scope: xts-uat&amp;nbsp;&lt;div&gt;&lt;br&gt;&lt;/div&gt;" style="text;strokeColor=none;fillColor=none;align=left;verticalAlign=middle;spacingLeft=4;spacingRight=4;overflow=hidden;points=[[0,0.5],[1,0.5]];portConstraint=eastwest;rotatable=0;whiteSpace=wrap;html=1;" parent="1" vertex="1">
          <mxGeometry x="150" y="130" width="150" height="60" as="geometry" />
        </mxCell>
      </root>
    </mxGraphModel>
  </diagram>
</mxfile>
